<?xml version="1.0" encoding="UTF-8"?>
<svg version="1.1" xmlns="http://www.w3.org/2000/svg" width="240" height="240">
<path d="M0 0 C79.2 0 158.4 0 240 0 C240 79.2 240 158.4 240 240 C160.8 240 81.6 240 0 240 C0 160.8 0 81.6 0 0 Z " fill="#2F3393" transform="translate(0,0)"/>
<path d="M0 0 C33.33 0 66.66 0 101 0 C101 79.2 101 158.4 101 240 C67.67 240 34.34 240 0 240 C0 230.1 0 220.2 0 210 C5.59582031 209.90912109 5.59582031 209.90912109 11.3046875 209.81640625 C14.90545758 209.75465285 18.50619509 209.69125023 22.10693359 209.62768555 C24.61536784 209.58429097 27.12383249 209.5426193 29.63232422 209.50268555 C33.23153868 209.44509243 36.83059942 209.38136657 40.4296875 209.31640625 C42.12035843 209.29133751 42.12035843 209.29133751 43.84518433 209.26576233 C44.88611237 209.24581711 45.92704041 209.22587189 46.99951172 209.20532227 C47.91884491 209.18977798 48.8381781 209.1742337 49.78536987 209.15821838 C52.04075154 209.1389322 52.04075154 209.1389322 54 208 C54.02465288 203.31860746 54.04283739 198.63725241 54.05493164 193.95581055 C54.05997157 192.36205386 54.0668035 190.76830181 54.07543945 189.17456055 C54.08751999 186.88849747 54.09323155 184.60249533 54.09765625 182.31640625 C54.10281754 181.59973282 54.10797882 180.88305939 54.11329651 180.14466858 C54.11349263 178.42936328 54.06192007 176.71418734 54 175 C51.91913113 172.91913113 47.40363483 173.8141769 44.53295898 173.79467773 C43.64523804 173.78477814 42.75751709 173.77487854 41.84289551 173.76467896 C38.89398918 173.73296516 35.94506671 173.70826766 32.99609375 173.68359375 C30.9572761 173.66303274 28.91846279 173.64203651 26.87965393 173.62062073 C21.50220245 173.5653119 16.12471194 173.51594162 10.74719238 173.46777344 C5.26436879 173.41762258 -0.21839784 173.36190311 -5.70117188 173.30664062 C-16.4673993 173.19895135 -27.2336761 173.09753046 -38 173 C-37.04345257 171.72025997 -36.08630554 170.4409681 -35.12890625 169.16186523 C-34.59595947 168.44941147 -34.0630127 167.7369577 -33.51391602 167.00291443 C-31.72986757 164.64261417 -29.8832125 162.34437644 -28 160.0625 C-27.23429687 159.13308594 -26.46859375 158.20367187 -25.6796875 157.24609375 C-25.2578418 156.73546387 -24.83599609 156.22483398 -24.40136719 155.69873047 C-22.82916297 153.79291219 -21.26207036 151.88295421 -19.6953125 149.97265625 C-13.77120725 142.75557201 -7.81421983 135.57161925 -1.76220703 128.46142578 C1.54293211 124.56805276 4.73529282 120.59643365 7.90625 116.59375 C10.38811347 113.51920272 12.93858593 110.50829908 15.5 107.5 C19.32161213 103.00916846 23.05668318 98.46635893 26.71875 93.84375 C29.11418019 90.85766579 31.54586704 87.90460317 33.99047852 84.95874023 C35.21121581 83.47890501 36.42259631 81.99130419 37.62475586 80.49633789 C40.39108843 77.06689199 43.13164187 73.79421226 46.34765625 70.77734375 C53.17413778 64.02368945 54.57507803 58.71924093 54.74267578 49.03833008 C54.66240765 43.34533067 54.42208368 37.67776336 54 32 C51.51320048 30.75660024 49.78202912 30.84172513 46.99951172 30.79467773 C45.95858368 30.77473251 44.91765564 30.75478729 43.84518433 30.73423767 C42.71807037 30.71752518 41.59095642 30.70081268 40.4296875 30.68359375 C39.27832306 30.66281265 38.12695862 30.64203156 36.94070435 30.62062073 C33.2521986 30.55508335 29.56361997 30.49622072 25.875 30.4375 C23.37889862 30.39431877 20.8828047 30.35070462 18.38671875 30.30664062 C12.2578862 30.1985807 6.12900066 30.09953802 0 30 C0 20.1 0 10.2 0 0 Z " fill="#2F3393" transform="translate(139,0)"/>
<path d="M0 0 C12.54 0 25.08 0 38 0 C38 9.9 38 19.8 38 30 C43.57841797 29.96519531 43.57841797 29.96519531 49.26953125 29.9296875 C52.86368468 29.91409868 56.45783437 29.90194954 60.05200195 29.89013672 C62.55364665 29.88006712 65.05527955 29.86641066 67.55688477 29.84912109 C71.14862986 29.82491508 74.7402196 29.81352654 78.33203125 29.8046875 C79.45398392 29.79436493 80.57593658 29.78404236 81.73188782 29.77340698 C82.77274033 29.77325592 83.81359283 29.77310486 84.88598633 29.77294922 C85.80309891 29.768508 86.72021149 29.76406677 87.66511536 29.75949097 C90 30 90 30 93 32 C93.78921924 36.45424621 93.64864966 40.98421952 93.6875 45.5 C93.76774414 47.36398438 93.76774414 47.36398438 93.84960938 49.265625 C93.94514632 58.79920637 91.56578993 63.28560926 85 70 C83.86878538 71.35429109 82.75066126 72.71966726 81.6484375 74.09765625 C80.55804018 75.41988846 79.466878 76.74149025 78.375 78.0625 C77.15749957 79.53771708 75.94005325 81.01297882 74.72265625 82.48828125 C73.80057373 83.60517334 73.80057373 83.60517334 72.85986328 84.74462891 C71.02742127 86.96674748 69.19861665 89.19180351 67.37109375 91.41796875 C61.55214383 98.50335862 55.70372766 105.55808917 49.76098633 112.54003906 C46.45622566 116.43289872 43.26431153 120.40406577 40.09375 124.40625 C37.14916916 128.05401433 34.10548467 131.6145398 31.06640625 135.18359375 C27.6605318 139.19327974 24.36376062 143.27779717 21.09765625 147.40234375 C18.17261086 151.02460666 15.15455814 154.56562498 12.11914062 158.09570312 C9.43409668 161.23692443 6.85619362 164.44418993 4.32446289 167.71069336 C3.70011856 168.51558701 3.07577423 169.32048065 2.43251038 170.14976501 C1.95978195 170.76034256 1.48705353 171.3709201 1 172 C2.68462845 172.01213028 2.68462845 172.01213028 4.40328979 172.02450562 C14.9689614 172.10187079 25.5345027 172.18958538 36.1000042 172.28752708 C41.53230086 172.33754902 46.96457751 172.38387839 52.39697266 172.421875 C57.63603862 172.45865348 62.87493951 172.50499282 68.1138649 172.55806351 C70.11618286 172.57664712 72.11853625 172.59174029 74.12090683 172.60334396 C76.91785467 172.62013876 79.71442114 172.64915682 82.51123047 172.68115234 C83.34560638 172.68331253 84.1799823 172.68547272 85.03964233 172.68769836 C90.77189568 172.77189568 90.77189568 172.77189568 93 175 C93.21169748 177.48542247 93.3039953 179.85674843 93.30078125 182.34375 C93.30506638 183.06864624 93.3093515 183.79354248 93.31376648 184.54040527 C93.31951167 186.07363846 93.32000864 187.6068989 93.31567383 189.14013672 C93.31251206 191.49103044 93.33597461 193.84066808 93.36132812 196.19140625 C93.36360087 197.67968591 93.36430473 199.16796896 93.36328125 200.65625 C93.372491 201.36148804 93.38170074 202.06672607 93.39118958 202.79333496 C93.37231445 204.77539063 93.37231445 204.77539063 93 208 C89.69477196 210.20348536 88.72339001 210.24563385 84.88598633 210.22705078 C83.84513382 210.22689972 82.80428131 210.22674866 81.73188782 210.22659302 C80.60993515 210.21627045 79.48798248 210.20594788 78.33203125 210.1953125 C77.18208176 210.1924826 76.03213226 210.18965271 74.84733582 210.18673706 C71.16895204 210.17552833 67.49081038 210.15042224 63.8125 210.125 C61.32096705 210.11497111 58.8294303 210.1058451 56.33789062 210.09765625 C50.22509174 210.07728704 44.11281739 210.0381389 38 210 C38 219.9 38 229.8 38 240 C25.46 240 12.92 240 0 240 C0 230.1 0 220.2 0 210 C-3.71894531 210.02320313 -7.43789062 210.04640625 -11.26953125 210.0703125 C-14.86368468 210.08590132 -18.45783437 210.09805046 -22.05200195 210.10986328 C-24.55364665 210.11993288 -27.05527955 210.13358934 -29.55688477 210.15087891 C-33.14862986 210.17508492 -36.7402196 210.18647346 -40.33203125 210.1953125 C-42.01496025 210.21079636 -42.01496025 210.21079636 -43.73188782 210.22659302 C-44.77274033 210.22674408 -45.81359283 210.22689514 -46.88598633 210.22705078 C-47.80309891 210.231492 -48.72021149 210.23593323 -49.66511536 210.24050903 C-52 210 -52 210 -55 208 C-56.88769166 198.56333098 -57.82999445 184.11417295 -52.9609375 175.5234375 C-50.81144901 172.55612059 -48.29396487 170.02105107 -45.60839844 167.53759766 C-42.78908604 164.84238978 -40.37219631 161.80262219 -37.875 158.8125 C-36.86536007 157.64143368 -35.85368121 156.47212175 -34.83984375 155.3046875 C-31.57657406 151.52570563 -28.42790329 147.65756203 -25.28125 143.78125 C-22.70156886 140.63615929 -20.07357589 137.53529458 -17.4375 134.4375 C-13.63846663 129.96785804 -9.92777697 125.44317691 -6.28125 120.84765625 C0.89796763 111.8859274 8.23208541 103.04548246 15.6875 94.3125 C19.99784924 89.2600818 24.13756403 84.08907062 28.2097168 78.84301758 C28.63293213 78.29798584 29.05614746 77.7529541 29.4921875 77.19140625 C29.85683105 76.71904541 30.22147461 76.24668457 30.59716797 75.76000977 C32.68789808 73.13695488 34.85051813 70.57511175 37 68 C35.92924728 67.99191315 34.85849457 67.98382629 33.7552948 67.97549438 C23.67556333 67.89808555 13.59596771 67.81035966 3.51641369 67.71247292 C-1.66586938 67.66247883 -6.84813176 67.61614908 -12.03051758 67.578125 C-17.02968976 67.54131151 -22.02869009 67.49496233 -27.02771568 67.44193649 C-28.93710001 67.42337159 -30.84652121 67.40827142 -32.75596046 67.39665604 C-35.4257844 67.37982942 -38.09521293 67.35080327 -40.76489258 67.31884766 C-41.55827026 67.31668747 -42.35164795 67.31452728 -43.16906738 67.31230164 C-46.97030773 67.25399096 -48.760595 67.15960333 -52 65 C-52.38818359 61.88305664 -52.38818359 61.88305664 -52.3984375 57.91015625 C-52.40130768 57.20982773 -52.40417786 56.50949921 -52.40713501 55.78794861 C-52.40917739 54.3059712 -52.40363524 52.82396693 -52.39111328 51.34204102 C-52.37508424 49.07441758 -52.39094167 46.80858286 -52.41015625 44.54101562 C-52.40817338 43.10155857 -52.40432878 41.66210262 -52.3984375 40.22265625 C-52.39505371 38.91047119 -52.39166992 37.59828613 -52.38818359 36.24633789 C-52 33 -52 33 -50.77815247 31.31838989 C-48.44376636 29.58758722 -47.05190806 29.63713181 -44.16137695 29.65942383 C-43.1805867 29.65965042 -42.19979645 29.65987701 -41.18928528 29.66011047 C-40.13295395 29.67559433 -39.07662262 29.69107819 -37.98828125 29.70703125 C-36.90491989 29.71127609 -35.82155853 29.71552094 -34.70536804 29.71989441 C-31.24082723 29.73670431 -27.77686538 29.77436152 -24.3125 29.8125 C-21.96550318 29.82754381 -19.61849726 29.84123274 -17.27148438 29.85351562 C-11.51391972 29.88406514 -5.75760889 29.94278416 0 30 C0 20.1 0 10.2 0 0 Z " fill="#FCFCFD" transform="translate(101,0)"/>
<path d="M0 0 C0.33 0 0.66 0 1 0 C1 4.29 1 8.58 1 13 C-3.29 13 -7.58 13 -12 13 C-9.82987456 11.37240592 -7.65215544 9.7539636 -5.4375 8.1875 C-2.67647838 5.70966008 -1.46004309 3.38115243 0 0 Z " fill="#000000" transform="translate(239,227)"/>
<path d="M0 0 C1.62759408 2.17012544 3.2460364 4.34784456 4.8125 6.5625 C7.29033992 9.32352162 9.61884757 10.53995691 13 12 C13 12.33 13 12.66 13 13 C8.71 13 4.42 13 0 13 C0 8.71 0 4.42 0 0 Z " fill="#000000" transform="translate(0,227)"/>
<path d="M0 0 C4.29 0 8.58 0 13 0 C13 4.29 13 8.58 13 13 C11.37240592 10.82987456 9.7539636 8.65215544 8.1875 6.4375 C5.70966008 3.67647838 3.38115243 2.46004309 0 1 C0 0.67 0 0.34 0 0 Z " fill="#000000" transform="translate(227,0)"/>
<path d="M0 0 C4.29 0 8.58 0 13 0 C10.82987456 1.62759408 8.65215544 3.2460364 6.4375 4.8125 C3.67647838 7.29033992 2.46004309 9.61884757 1 13 C0.67 13 0.34 13 0 13 C0 8.71 0 4.42 0 0 Z " fill="#000000" transform="translate(0,0)"/>
<path d="M0 0 C-1.49097658 3.7952131 -3.75700849 5.61042731 -7 8 C-4.18918919 0 -4.18918919 0 0 0 Z " fill="#5D61AB" transform="translate(9,3)"/>
</svg>
